<?xml version="1.0" encoding="UTF-8"?>
<svg version="1.1" xmlns="http://www.w3.org/2000/svg" width="1000" height="1000">
<path d="M0 0 C330 0 660 0 1000 0 C1000 330 1000 660 1000 1000 C670 1000 340 1000 0 1000 C0 670 0 340 0 0 Z " fill="#368090" transform="translate(0,0)"/>
<path d="M0 0 C0.23376178 15.02046702 0.41001973 30.04079297 0.51812172 45.06269264 C0.56965411 52.03801963 0.63988448 59.01221555 0.75439453 65.98681641 C0.86484288 72.71724366 0.92283247 79.44625319 0.94877243 86.17762375 C0.96725826 88.74623494 1.00335845 91.31478135 1.05730057 93.88289261 C1.1298581 97.48014744 1.13989392 101.07254199 1.13525391 104.67041016 C1.17120667 105.73352417 1.20715942 106.79663818 1.24420166 107.89196777 C1.20208366 110.90770924 1.06777133 113.17603606 0 116 C-3.0332334 118.73459574 -6.30164945 120.32961989 -10 122 C-11.37606505 122.78981504 -12.74425933 123.59381729 -14.09765625 124.421875 C-15.41900692 125.19836593 -16.74062721 125.97439823 -18.0625 126.75 C-19.54297586 127.61977957 -21.0234444 128.48957159 -22.50390625 129.359375 C-23.24914551 129.79701172 -23.99438477 130.23464844 -24.76220703 130.68554688 C-28.34252077 132.78858082 -31.92120284 134.89438667 -35.5 137 C-36.91665829 137.83334757 -38.33332497 138.66668088 -39.75 139.5 C-40.45125 139.9125 -41.1525 140.325 -41.875 140.75 C-184.25 224.5 -184.25 224.5 -186.37255859 225.74853516 C-187.79739672 226.58669447 -189.2222011 227.42491113 -190.64697266 228.26318359 C-194.06334965 230.27313778 -197.48019159 232.28228814 -200.8984375 234.2890625 C-210.21326649 239.75980481 -219.50719624 245.26527253 -228.79647827 250.77926636 C-238.21387441 256.36770766 -247.66006677 261.90501654 -257.13500977 267.39550781 C-258.05338623 267.92885742 -258.9717627 268.46220703 -259.91796875 269.01171875 C-260.78599121 269.5123584 -261.65401367 270.01299805 -262.54833984 270.52880859 C-264.8686439 271.92117587 -267.07209093 273.42431235 -269.30078125 274.95703125 C-271.80259489 276.49682674 -272.8405501 276.98947236 -275.83984375 277.1875 C-280.74653629 275.34369959 -285.08529322 272.70579019 -289.5625 270 C-291.71733792 268.71986691 -293.87229094 267.43992754 -296.02734375 266.16015625 C-297.17311533 265.4755922 -298.31878425 264.79085632 -299.46435547 264.10595703 C-303.04933188 261.96617618 -306.64955248 259.85303255 -310.25390625 257.74609375 C-310.85946854 257.39209503 -311.46503082 257.03809631 -312.08894348 256.67337036 C-313.31714385 255.95552599 -314.54537981 255.2377425 -315.77365112 254.52001953 C-325.73776312 248.69381034 -335.68093624 242.83223492 -345.61376953 236.95288086 C-353.23021734 232.44756307 -360.8639657 227.97199729 -368.5 223.5 C-377.8869153 218.00260985 -387.26323065 212.48791175 -396.62426758 206.9465332 C-404.74924731 202.14032199 -412.89561151 197.37087229 -421.04232788 192.60165405 C-429.98261331 187.36678596 -438.90428581 182.10177226 -447.8125 176.8125 C-458.10236669 170.7041698 -468.42437906 164.65365142 -478.765625 158.6328125 C-547.24203714 118.75796286 -547.24203714 118.75796286 -550 116 C-550.09571971 114.50716202 -550.12188227 113.00980345 -550.12025452 111.51390076 C-550.12162918 110.54489838 -550.12300385 109.575896 -550.12442017 108.57752991 C-550.12082489 107.50579025 -550.11722961 106.4340506 -550.11352539 105.32983398 C-550.11367142 104.20802734 -550.11381744 103.0862207 -550.1139679 101.93041992 C-550.1132682 98.20229189 -550.10547315 94.47421311 -550.09765625 90.74609375 C-550.09579227 88.16919482 -550.09436827 85.59229553 -550.09336853 83.01539612 C-550.08993342 76.91324885 -550.0820426 70.81112206 -550.07201904 64.70898253 C-550.06085689 57.7635075 -550.0553472 50.81803165 -550.05032361 43.87254989 C-550.03985996 29.58169034 -550.02226115 15.2908458 -550 1 C-545.70226394 2.66553322 -541.74811908 4.71964229 -537.75 7 C-537.05253662 7.39517822 -536.35507324 7.79035645 -535.63647461 8.19750977 C-528.42558445 12.29835644 -521.27959803 16.50867108 -514.14111328 20.73388672 C-510.59790719 22.82910528 -507.04867242 24.91405811 -503.5 27 C-502.08330404 27.83328354 -500.66663738 28.66661688 -499.25 29.5 C-498.54875 29.9125 -497.8475 30.325 -497.125 30.75 C-478 42 -458.875 53.25 -439.75 64.5 C-439.04955566 64.9120166 -438.34911133 65.3240332 -437.62744141 65.74853516 C-436.20260328 66.58669447 -434.7777989 67.42491113 -433.35302734 68.26318359 C-429.93665035 70.27313778 -426.51980841 72.28228814 -423.1015625 74.2890625 C-415.52462043 78.7391171 -407.95948365 83.20850632 -400.40307617 87.69335938 C-387.62934047 95.27443686 -374.82201235 102.79550461 -361.98242188 110.26464844 C-356.84054441 113.25650052 -351.70137753 116.25299882 -346.5625 119.25 C-345.05768066 120.12760986 -345.05768066 120.12760986 -343.52246094 121.02294922 C-335.67487174 125.60178838 -327.83964676 130.20127217 -320.01220703 134.81445312 C-317.22155463 136.45864241 -314.42967738 138.10074566 -311.63769531 139.74267578 C-310.22411682 140.57409758 -308.81070255 141.40579866 -307.39746094 142.23779297 C-303.72256136 144.40095311 -300.04497928 146.5593658 -296.36328125 148.7109375 C-295.22052734 149.37996094 -295.22052734 149.37996094 -294.0546875 150.0625 C-292.60632645 150.9103211 -291.15716287 151.75677339 -289.70703125 152.6015625 C-289.04703125 152.98828125 -288.38703125 153.375 -287.70703125 153.7734375 C-286.75691162 154.32596191 -286.75691162 154.32596191 -285.78759766 154.88964844 C-284 156 -284 156 -280.94921875 158.3515625 C-277.06836231 160.52072994 -275.23957626 160.17084066 -271 159 C-267.95418997 157.54591929 -267.95418997 157.54591929 -264.875 155.5 C-263.55354628 154.67473616 -262.2304779 153.85205497 -260.90625 153.03125 C-260.14699219 152.55816406 -259.38773437 152.08507812 -258.60546875 151.59765625 C-253.85788668 148.68647025 -249.0409277 145.89218235 -244.23178101 143.08435059 C-241.71848188 141.61659679 -239.20710428 140.14556994 -236.69560242 138.67474365 C-234.75772826 137.53996341 -232.8195765 136.40565868 -230.88134766 135.27148438 C-224.60711065 131.59985448 -218.3344766 127.92548963 -212.0625 124.25 C-211.45436462 123.89365479 -210.84622925 123.53730957 -210.21966553 123.17016602 C-201.59667477 118.11676446 -192.98587524 113.04312847 -184.38500977 107.95214844 C-176.14247504 103.07651669 -167.8794386 98.23607962 -159.61572266 93.39648438 C-151.73428755 88.78036165 -143.86004872 84.15247959 -136 79.5 C-127.65772929 74.56297493 -119.30115747 69.65067243 -110.9375 64.75 C-110.32929413 64.3936145 -109.72108826 64.037229 -109.0944519 63.67004395 C-104.10165907 60.74467534 -99.1082724 57.8203209 -94.11486816 54.89599609 C-89.76380661 52.34779516 -85.41297039 49.79921011 -81.0625 47.25 C-80.45373016 46.89329224 -79.84496033 46.53658447 -79.21774292 46.16906738 C-70.60049084 41.11901424 -61.99508311 36.0493054 -53.40039062 30.9609375 C-48.18148779 27.87337468 -42.95540141 24.79839846 -37.72265625 21.734375 C-36.77883591 21.18172218 -36.77883591 21.18172218 -35.81594849 20.61790466 C-33.26822861 19.12631551 -30.72039899 17.63491446 -28.17224121 16.14407349 C-19.86314284 11.28195902 -11.58029875 6.3813111 -3.359375 1.37109375 C-1 0 -1 0 0 0 Z " fill="#FEFEFE" transform="translate(771,245)"/>
<path d="M0 0 C3.1625537 1.24324836 6.11206313 2.53457173 9.046875 4.25 C9.80049316 4.68836182 10.55411133 5.12672363 11.33056641 5.57836914 C12.12897949 6.04750732 12.92739258 6.51664551 13.75 7 C14.58837402 7.48911865 15.42674805 7.9782373 16.29052734 8.48217773 C18.86261189 9.98429643 21.43169384 11.49143182 24 13 C24.74991211 13.43973145 25.49982422 13.87946289 26.27246094 14.33251953 C30.50226148 16.81314724 34.72766145 19.30116141 38.95117188 21.79248047 C40.9298509 22.95865617 42.90992395 24.12241878 44.890625 25.28515625 C52.47057576 29.73582985 60.03801655 34.20702265 67.59692383 38.69335938 C80.37065953 46.27443686 93.17798765 53.79550461 106.01757812 61.26464844 C111.15945559 64.25650052 116.29862247 67.25299882 121.4375 70.25 C122.44071289 70.83507324 123.44392578 71.42014648 124.47753906 72.02294922 C132.32512826 76.60178838 140.16035324 81.20127217 147.98779297 85.81445312 C151.4906958 87.87828425 154.99546937 89.93893465 158.5 92 C159.91667503 92.83331912 161.33334171 93.66665243 162.75 94.5 C163.45125 94.9125 164.1525 95.325 164.875 95.75 C167 97 169.125 98.25 171.25 99.5 C171.95084717 99.9122583 172.65169434 100.3245166 173.3737793 100.74926758 C174.7945317 101.58501388 176.2152673 102.42078875 177.63598633 103.2565918 C181.11500598 105.30323787 184.59428845 107.34943389 188.07421875 109.39453125 C194.90636956 113.41041922 201.73448658 117.43293149 208.55517578 121.46826172 C221.3460662 129.03525886 234.1662447 136.55171006 246.98947144 144.06370544 C251.99546 146.99659173 256.99894992 149.93370159 262 152.875 C262.65718018 153.26131592 263.31436035 153.64763184 263.99145508 154.0456543 C266.60864201 155.58565074 269.15523524 157.11134432 271.625 158.8828125 C273.94439947 160.30197058 273.94439947 160.30197058 276.28515625 159.27709961 C279.23426745 157.88979739 282.00646314 156.34213624 284.8125 154.68359375 C285.37013535 154.35539139 285.92777069 154.02718903 286.50230408 153.68904114 C288.33678048 152.60839822 290.16835821 151.52293929 292 150.4375 C293.2934864 149.67444051 294.58719137 148.91175141 295.88110352 148.14941406 C298.57407293 146.56243801 301.26609026 144.97386386 303.95751953 143.38427734 C307.83025756 141.09839015 311.70883757 138.82259672 315.58984375 136.55078125 C316.20115143 136.19294052 316.81245911 135.83509979 317.44229126 135.46641541 C318.66536746 134.75053982 319.88846101 134.03469387 321.11157227 133.31887817 C330.08591135 128.06539799 339.05074518 122.79612481 348 117.5 C356.34231931 112.56305663 364.69884219 107.65067263 373.0625 102.75 C373.67070587 102.3936145 374.27891174 102.037229 374.9055481 101.67004395 C379.89834093 98.74467534 384.8917276 95.8203209 389.88513184 92.89599609 C394.23619339 90.34779516 398.58702961 87.79921011 402.9375 85.25 C403.54626984 84.89329224 404.15503967 84.53658447 404.78225708 84.16906738 C413.40460451 79.11602817 422.0147601 74.0427524 430.61499023 68.95214844 C438.85752496 64.07651669 447.1205614 59.23607962 455.38427734 54.39648438 C464.14289372 49.26660035 472.88960635 44.11712111 481.62426758 38.9465332 C486.69501171 35.94700975 491.77176474 32.95797303 496.85546875 29.98046875 C497.74995979 29.45654037 497.74995979 29.45654037 498.66252136 28.92202759 C501.72613859 27.12795092 504.7903954 25.33497411 507.85522461 23.54296875 C514.15773071 19.85527046 520.44560881 16.14508987 526.7109375 12.39453125 C527.95806542 11.64945565 529.20521673 10.9044192 530.45239258 10.15942383 C532.81238347 8.74943547 535.16830279 7.33294596 537.5222168 5.9128418 C538.57836182 5.281604 539.63450684 4.65036621 540.72265625 4 C541.64828369 3.443125 542.57391113 2.88625 543.52758789 2.3125 C545.75530565 1.12989798 547.56750072 0.55092001 550 0 C550.30414042 14.85523489 550.53314409 29.71022808 550.67355824 44.56791687 C550.74050049 51.46739982 550.83169304 58.36494498 550.98071289 65.26318359 C551.12450045 71.92240952 551.19971851 78.57920903 551.23340416 85.24005127 C551.25740271 87.77923245 551.30427141 90.31830491 551.37449074 92.85662842 C551.89028875 112.27658206 551.89028875 112.27658206 548.72706604 116.83396912 C545.29271041 120.03617463 541.43187477 121.51077251 537 123 C535.63111231 123.76298997 534.27622626 124.55418034 532.9609375 125.40625 C531.76635595 126.10541705 530.57102846 126.803311 529.375 127.5 C522.36329987 131.60378539 515.37285352 135.74270878 508.38745117 139.89105225 C499.14823633 145.37679606 489.89125612 150.82876964 480.58300781 156.19677734 C473.39388139 160.34314442 466.24101451 164.5497549 459.09277344 168.76611328 C455.56353047 170.84693385 452.03162099 172.92321898 448.5 175 C447.08332078 175.833312 445.66665411 176.66664532 444.25 177.5 C418.75 192.5 418.75 192.5 416.62744141 193.74853516 C415.20260328 194.58669447 413.7777989 195.42491113 412.35302734 196.26318359 C408.93665035 198.27313778 405.51980841 200.28228814 402.1015625 202.2890625 C394.52405473 206.73944934 386.95837589 211.20921074 379.40136719 215.69433594 C367.44952553 222.78759531 355.46829927 229.82798833 343.45703125 236.8203125 C336.62879551 240.79582612 329.81918636 244.80269085 323.01220703 248.81445312 C320.22196344 250.45840154 317.43049737 252.10026788 314.63891602 253.74194336 C313.22125165 254.57577791 311.80376895 255.40992141 310.38647461 256.24438477 C306.77420253 258.37084649 303.15913614 260.49231194 299.5390625 262.60546875 C298.8059082 263.0344043 298.07275391 263.46333984 297.31738281 263.90527344 C295.8725425 264.75029586 294.42660265 265.59344147 292.97949219 266.43457031 C289.80932332 268.28966209 286.6910188 270.17183874 283.6640625 272.25390625 C282.70242188 272.91261719 281.74078125 273.57132813 280.75 274.25 C279.94046875 274.83265625 279.1309375 275.4153125 278.296875 276.015625 C276 277 276 277 273.62573242 276.20922852 C271.23894343 275.11004062 268.9694986 273.94410764 266.69140625 272.63671875 C265.87414062 272.16919189 265.056875 271.70166504 264.21484375 271.2199707 C263.33957031 270.71425537 262.46429688 270.20854004 261.5625 269.6875 C260.634375 269.15406982 259.70625 268.62063965 258.75 268.07104492 C250.46215762 263.29479928 242.22731166 258.43029445 234 253.55078125 C227.18109036 249.5092236 220.34045804 245.50491684 213.5 241.5 C204.99012019 236.51663138 196.48643008 231.52324402 188 226.5 C179.65772929 221.56297493 171.30115747 216.65067243 162.9375 211.75 C162.32929413 211.3936145 161.72108826 211.037229 161.0944519 210.67004395 C156.72995941 208.112808 152.36502696 205.5563235 148 203 C143.02053669 200.08383953 138.04125878 197.1673632 133.0625 194.25 C132.45373016 193.89329224 131.84496033 193.53658447 131.21774292 193.16906738 C122.59539549 188.11602817 113.9852399 183.0427524 105.38500977 177.95214844 C97.76895743 173.44709413 90.13562486 168.9717575 82.5 164.5 C73.99029008 159.51633987 65.48639594 154.52330549 57 149.5 C46.70390973 143.40580416 36.39628062 137.32978248 26.05475426 131.31289387 C24.34090326 130.30333374 22.64583359 129.26208114 20.95230103 128.21879578 C18.24477534 126.61407239 15.58297254 125.41659913 12.6335144 124.32502747 C7.73365819 122.33033104 3.37913683 120.1782234 0 116 C-3.09469931 107.75185096 -1.97116239 98.28501338 -1.66015625 89.6484375 C-1.62842165 87.06206176 -1.60423571 84.47558335 -1.58726501 81.8890686 C-1.52915751 75.79508592 -1.39547265 69.70714357 -1.22432369 63.61542857 C-1.0336164 56.67532466 -0.94067372 49.73495574 -0.85550129 42.79287982 C-0.67828937 28.52577943 -0.37972063 14.26307644 0 0 Z " fill="#FEFEFE" transform="translate(221,478)"/>
</svg>
