<svg width="15" height="17" viewBox="0 0 15 17" fill="none" xmlns="http://www.w3.org/2000/svg">
<g clip-path="url(#clip0_86_308)">
<path d="M13.5024 5.36813C13.5024 5.36813 13.6557 5.63078 13.9622 6.15608C14.2688 6.68137 14.4221 7.56605 14.4221 8.81009C14.4221 10.0541 14.1155 11.2015 13.5024 12.2521C12.8893 13.3027 12.0575 14.1345 11.0069 14.7476C9.95628 15.3607 8.80895 15.6672 7.56491 15.6672C6.32086 15.6672 5.17354 15.3607 4.12294 14.7476C3.07235 14.1345 2.2405 13.3027 1.62741 12.2521C1.01431 11.2015 0.707764 10.0541 0.707764 8.81009C0.707764 7.56605 1.01431 6.41872 1.62741 5.36813C2.2405 4.31753 3.07235 3.48569 4.12294 2.87259C5.17354 2.2595 6.32086 1.95295 7.56491 1.95295C8.80895 1.95295 9.95628 2.2595 11.0069 2.87259C12.0575 3.48569 12.8893 4.31753 13.5024 5.36813Z" fill="#25AE88"/>
</g>
<defs>
<clipPath id="clip0_86_308">
<rect width="13.81" height="16" fill="white" transform="matrix(1 0 0 -1 0.659912 16.8101)"/>
</clipPath>
</defs>
</svg>
