<?xml version="1.0" encoding="UTF-8"?>
<svg version="1.1" xmlns="http://www.w3.org/2000/svg" width="120" height="120">
<path d="M0 0 C0.763125 0.86625 1.52625 1.7325 2.3125 2.625 C5.64137488 5.56679641 7.69663268 5.59154005 12.01171875 5.6640625 C12.99591797 5.83035156 12.99591797 5.83035156 14 6 C16.5042003 9.75630045 15.77125351 10.7152583 15 15 C15.185625 15.86625 15.37125 16.7325 15.5625 17.625 C16 20 16 20 14.92041016 21.74902344 C13.55746717 25.08226863 14.58522645 27.01780491 15.7109375 30.390625 C16.01572021 31.3165596 16.01572021 31.3165596 16.32666016 32.26119995 C16.99275534 34.26353558 17.68241275 36.25668702 18.375 38.25 C18.60519836 38.92851013 18.83539673 39.60702026 19.0725708 40.30609131 C22.18345556 49.47151416 25.71038793 58.18823545 30.30859375 66.71484375 C34.44549594 74.74979697 37.14830067 83.45417934 37.09765625 92.51953125 C37.09282227 94.0519043 37.09282227 94.0519043 37.08789062 95.61523438 C37.07532227 97.19788086 37.07532227 97.19788086 37.0625 98.8125 C37.05798828 99.88693359 37.05347656 100.96136719 37.04882812 102.06835938 C37.03707729 104.71229683 37.02064787 107.35611952 37 110 C35.35 110 33.7 110 32 110 C31.97083496 109.39752441 31.94166992 108.79504883 31.91162109 108.17431641 C31.00407851 91.27734866 29.17693668 72.67595692 18 59 C16.36677653 57.62590515 14.70577234 56.2829249 13 55 C13.27714844 56.22976562 13.55429688 57.45953125 13.83984375 58.7265625 C14.20581467 60.35935584 14.57169532 61.99216941 14.9375 63.625 C15.21110352 64.83736328 15.21110352 64.83736328 15.49023438 66.07421875 C18.19497217 78.17177323 18.58999136 89.49545345 17.0625 101.8125 C16.97572998 102.5122998 16.88895996 103.21209961 16.79956055 103.93310547 C16.13468892 108.86531108 16.13468892 108.86531108 15 110 C13.33382885 110.04063832 11.66611905 110.042721 10 110 C9.97290556 107.91673869 9.95356127 105.83337559 9.9375 103.75 C9.92589844 102.58984375 9.91429688 101.4296875 9.90234375 100.234375 C9.98217908 97.59022872 10.21356222 95.50173909 11 93 C4.82618704 91.5119563 4.82618704 91.5119563 -1.01171875 93.19921875 C-2.16855114 94.2728632 -3.3019922 95.37228504 -4.41015625 96.49609375 C-7.8174695 99.7192279 -11.49369734 100 -16 100 C-16 103.3 -16 106.6 -16 110 C-17.98 110 -19.96 110 -22 110 C-22 106.7 -22 103.4 -22 100 C-23.19625 99.9175 -24.3925 99.835 -25.625 99.75 C-29.92310448 99.21749148 -32.57666848 97.70682027 -36 95 C-36.45375 94.401875 -36.9075 93.80375 -37.375 93.1875 C-39.79526336 91.418846 -41.85825241 92.15522364 -44.69140625 92.5612793 C-48.67423372 93.31816815 -52.47189834 94.53017815 -56.3125 95.8125 C-57.10978516 96.06064453 -57.90707031 96.30878906 -58.72851562 96.56445312 C-64.40664973 98.40342747 -64.40664973 98.40342747 -68 103 C-68.73260159 105.31347872 -69.411438 107.645752 -70 110 C-71.65 110 -73.3 110 -75 110 C-75.51121907 103.60976167 -75.02722982 100.2476025 -71 95 C-69.70836443 91.5329782 -70.17178799 88.62569611 -70.625 85 C-71.58104045 73.60399786 -68.02761816 64.54372876 -62 55 C-61.47277344 54.39285156 -60.94554687 53.78570312 -60.40234375 53.16015625 C-58.42971486 50.12153849 -58.08529028 46.95261476 -57.5625 43.4375 C-56.73045424 38.32636178 -55.68008756 33.75180552 -53.6875 28.9375 C-51.73254047 24.04275171 -52.12254256 21.84186392 -54 17 C-53.5625 14.8125 -53.5625 14.8125 -53 13 C-53.185625 12.319375 -53.37125 11.63875 -53.5625 10.9375 C-53.706875 10.298125 -53.85125 9.65875 -54 9 C-53.34 8.01 -52.68 7.02 -52 6 C-49.79296875 5.6640625 -49.79296875 5.6640625 -47.1875 5.625 C-42.02587623 5.26368634 -40.50032345 3.85933098 -37 0 C-26.21927215 -6.4429202 -10.67341901 -7.20455783 0 0 Z M-33 5 C-33 5.33 -33 5.66 -33 6 C-23.43 6 -13.86 6 -4 6 C-12.43750764 -0.32813073 -23.71080892 0.62861596 -33 5 Z M-45.59057617 24.86230469 C-46.96802922 27.92882584 -48.21872163 30.92476315 -49.25 34.125 C-49.58515625 35.13820313 -49.9203125 36.15140625 -50.265625 37.1953125 C-51.16886623 40.16171903 -51.16886623 40.16171903 -51 44 C-47.02882358 42.67627453 -44.70796989 41.19683261 -42 38 C-40.99808736 35.27652991 -40.99808736 35.27652991 -40.4375 32.375 C-39.32411273 27.21607516 -39.32411273 27.21607516 -36 25 C-31.89821683 24.67185735 -28.43968023 25.08965741 -24.5 26.125 C-20.10863075 27.1986115 -17.30258904 26.46125666 -13 25 C-7.62177812 24.34144222 -5.24738814 25.74099778 -1 29 C0.681977 31.15554334 2.16987605 33.20817977 3.625 35.5 C6.12628234 39.35687242 8.60078287 42.86226111 12 46 C12.99 45.505 12.99 45.505 14 45 C13.45493194 42.66138398 12.88965334 40.33072651 12.3125 38 C12.08916992 37.02740234 12.08916992 37.02740234 11.86132812 36.03515625 C10.55522881 30.86197857 8.87263808 25.80717689 5 22 C1.39021207 20.82641321 -2.07806303 20.92408754 -5.84765625 21.0078125 C-6.89650497 21.00490204 -7.9453537 21.00199158 -9.02598572 20.99899292 C-11.23919814 21.00230758 -13.45245741 21.025395 -15.6652832 21.06689453 C-19.05553456 21.12488086 -22.43954307 21.10810661 -25.83007812 21.08203125 C-27.98180126 21.09450501 -30.13350464 21.11128616 -32.28515625 21.1328125 C-33.29876724 21.12694122 -34.31237823 21.12106995 -35.35670471 21.11502075 C-41.21971261 21.18512578 -41.21971261 21.18512578 -45.59057617 24.86230469 Z M-53.125 54.625 C-60.16220351 61.80760027 -64.74795094 71.5809907 -65.08984375 81.64453125 C-64.98090103 84.50072529 -64.67602772 87.22077492 -64 90 C-56.44708799 89.39576704 -49.12875682 87.5632572 -42 85 C-39.51806286 80.03612573 -40.26623751 71.98565426 -41.56640625 66.6953125 C-43.01472674 63.2830391 -45.08347406 60.16643416 -47 57 C-47.69822617 55.34630643 -48.37498605 53.68272986 -49 52 C-50.80903912 52 -51.83904257 53.45437507 -53.125 54.625 Z M6 62 C2.17961217 68.6856787 2.49052938 75.44611825 3 83 C3.79299706 85.17038477 3.79299706 85.17038477 5.84765625 85.6328125 C6.57855469 85.79523438 7.30945313 85.95765625 8.0625 86.125 C8.79597656 86.29257813 9.52945313 86.46015625 10.28515625 86.6328125 C10.85105469 86.75398438 11.41695312 86.87515625 12 87 C11.5946828 78.33459773 10.38994476 70.34226001 8 62 C7.34 62 6.68 62 6 62 Z M-7.5 83.4375 C-11.60374622 87.16550979 -14.44454405 89.22055983 -20.046875 89.26953125 C-23.03573065 88.85706917 -24.63473071 87.88008585 -27 86 C-28.43648926 84.93613389 -29.87405984 83.87372683 -31.3125 82.8125 C-32.54344965 81.87734232 -33.77322572 80.94062842 -35 80 C-35.9593157 82.19514873 -35.9593157 82.19514873 -36 85 C-32.79720144 90.00437275 -29.81296815 92.28469792 -24 94 C-16.3891696 94.88241512 -10.90981341 93.77802532 -4.625 89.3125 C-2.25478382 85.93950006 -2.27255482 83.08832231 -2 79 C-4.05897767 79 -6.16572926 82.11764268 -7.5 83.4375 Z " fill="#292929" transform="translate(79,7)"/>
<path d="M0 0 C2.00277585 0.31622777 4.00189338 0.65549886 6 1 C11.56190695 1.21872668 16.96711459 1.27742499 22.4375 0.1875 C26 0 26 0 28.5625 1.8125 C29.41677492 2.84171177 30.22211542 3.91190162 31 5 C31.60199219 5.83402344 32.20398438 6.66804688 32.82421875 7.52734375 C34.08090245 9.3040345 35.32258877 11.09145654 36.546875 12.890625 C37.83184514 14.89223262 37.83184514 14.89223262 39 16 C39.16796875 17.9609375 39.16796875 17.9609375 39.1875 20.375 C39.20167969 21.16648437 39.21585938 21.95796875 39.23046875 22.7734375 C39 25 39 25 37 28 C36.34 28 35.68 28 35 28 C34.85304687 28.61746094 34.70609375 29.23492187 34.5546875 29.87109375 C31.96019927 39.66752343 27.48369307 46.84950645 19.16015625 52.796875 C17 54 17 54 13.9375 54.375 C5.10025697 50.23841816 -0.30729859 42.59598707 -3.9296875 33.72265625 C-4.17976563 33.03042969 -4.42984375 32.33820313 -4.6875 31.625 C-5.74431936 28.07969004 -5.74431936 28.07969004 -7.6875 25.9375 C-9.81032704 22.80380294 -9.56276826 20.68925857 -9 17 C-7.58412955 15.13745613 -6.01930185 13.51778435 -4.39453125 11.8359375 C-2.06493396 8.76896068 -2.25589441 5.7744425 -2 2 C-1.34 1.34 -0.68 0.68 0 0 Z " fill="#FCFCFC" transform="translate(45,37)"/>
</svg>
