<?xml version="1.0" standalone="no"?>
<!DOCTYPE svg PUBLIC "-//W3C//DTD SVG 20010904//EN" "http://www.w3.org/TR/2001/REC-SVG-20010904/DTD/svg10.dtd">
<svg version="1.0" xmlns="http://www.w3.org/2000/svg" width="1000.000000pt" height="1000.000000pt" viewBox="0 0 1000.000000 1000.000000" preserveAspectRatio="xMidYMid meet">
  <g transform="translate(0.000000,1000.000000) scale(0.100000,-0.100000)" fill="#000000" stroke="none">
    <path d="M7660 7526 c-19 -13 -577 -342 -1240 -731 -663 -389 -1256 -739
-1319 -776 -126 -77 -156 -83 -211 -46 -19 13 -195 118 -390 232 -195 114
-762 448 -1260 740 -498 293 -933 547 -967 564 l-63 31 0 -573 c0 -534 1 -575
18 -589 9 -9 121 -76 247 -150 127 -75 716 -421 1311 -770 594 -350 1100 -646
1123 -658 48 -24 77 -21 121 10 29 21 99 62 1540 910 558 328 1039 610 1069
626 29 15 60 39 68 51 13 19 14 99 8 588 -5 311 -11 565 -14 564 -3 0 -22 -11
-41 -23z" />
    <path d="M2210 5148 c0 -40 -5 -282 -10 -538 -5 -265 -5 -482 0 -503 12 -54
43 -84 129 -124 40 -18 355 -199 700 -402 1623 -955 1825 -1073 1882 -1101
l61 -31 67 44 c36 24 235 143 441 264 206 121 616 362 910 535 975 574 1185
695 1232 716 27 12 59 33 73 48 l25 27 0 222 c0 122 -3 377 -7 567 l-6 346
-31 -11 c-17 -6 -83 -42 -146 -80 -232 -140 -2510 -1477 -2545 -1494 -31 -15
-39 -15 -58 -3 -20 13 -648 383 -2047 1205 -311 183 -589 344 -617 359 l-53
26 0 -72z" />
  </g>
</svg>