<svg width="15" height="14" viewBox="0 0 15 14" fill="none" xmlns="http://www.w3.org/2000/svg">
<path d="M14.0722 1.31578V5.31578C14.0722 5.47054 14.0156 5.60447 13.9026 5.71756C13.7895 5.83066 13.6555 5.88721 13.5008 5.88721H9.50077C9.25077 5.88721 9.07517 5.76816 8.97398 5.53006C8.87279 5.29792 8.91446 5.09256 9.09898 4.91399L10.3311 3.68185C9.45017 2.86637 8.41148 2.45864 7.21505 2.45864C6.59601 2.45864 6.00523 2.57917 5.44273 2.82024C4.88023 3.06131 4.39362 3.38721 3.98291 3.79792C3.5722 4.20864 3.2463 4.69524 3.00523 5.25774C2.76416 5.82024 2.64362 6.41102 2.64362 7.03006C2.64362 7.64911 2.76416 8.23989 3.00523 8.80239C3.2463 9.36489 3.5722 9.85149 3.98291 10.2622C4.39362 10.6729 4.88023 10.9988 5.44273 11.2399C6.00523 11.481 6.59601 11.6015 7.21505 11.6015C7.92339 11.6015 8.59303 11.4467 9.22398 11.1372C9.85493 10.8277 10.3877 10.3902 10.8222 9.82471C10.8639 9.76518 10.9323 9.72947 11.0276 9.71756C11.1168 9.71756 11.1912 9.74435 11.2508 9.79792L12.474 11.0301C12.5276 11.0777 12.5558 11.1387 12.5588 11.2131C12.5618 11.2875 12.5395 11.3545 12.4918 11.414C11.843 12.1997 11.0573 12.8083 10.1347 13.2399C9.21208 13.6714 8.23886 13.8872 7.21505 13.8872C6.28648 13.8872 5.39958 13.7057 4.55434 13.3426C3.7091 12.9795 2.97993 12.4914 2.36684 11.8783C1.75374 11.2652 1.26565 10.536 0.902553 9.69078C0.539458 8.84554 0.35791 7.95864 0.35791 7.03006C0.35791 6.10149 0.539458 5.21459 0.902553 4.36935C1.26565 3.52411 1.75374 2.79494 2.36684 2.18185C2.97993 1.56875 3.7091 1.08066 4.55434 0.717564C5.39958 0.354468 6.28648 0.17292 7.21505 0.17292C8.09005 0.17292 8.93678 0.338099 9.75523 0.668456C10.5737 0.998814 11.3014 1.46459 11.9383 2.06578L13.099 0.913992C13.2716 0.729468 13.4799 0.687801 13.724 0.788992C13.9561 0.890182 14.0722 1.06578 14.0722 1.31578Z" fill="#123750"/>
</svg>
