<svg width="73" height="73" viewBox="0 0 73 73" fill="none" xmlns="http://www.w3.org/2000/svg">
<rect x="1.82367" y="1.69995" width="69" height="69" rx="34.5" stroke="#123750" stroke-width="3"/>
<g clip-path="url(#clip0_2_168)">
<path d="M51.019 40.9695C51.3627 41.0984 51.6743 41.3132 51.9536 41.614C52.2328 41.9148 52.4477 42.2478 52.5981 42.613C52.7485 42.9783 52.8237 43.3328 52.8237 43.6765C52.8237 43.8914 52.8022 44.1062 52.7592 44.321L51.3412 50.3796C51.2123 51.0242 50.8686 51.572 50.31 52.0232C49.7514 52.4744 49.1498 52.7 48.5053 52.7C44.5952 52.7 40.8784 51.948 37.3549 50.4441C33.8315 48.9402 30.7914 46.9099 28.2348 44.3533C25.6782 41.7966 23.6371 38.7458 22.1118 35.2009C20.5864 31.656 19.8237 27.95 19.8237 24.0828V24.0183C19.8237 23.3738 20.0493 22.7722 20.5004 22.2136C20.9516 21.655 21.4995 21.3113 22.144 21.1824L28.2026 19.7644C28.4174 19.7214 28.6323 19.7 28.8471 19.7C29.4057 19.7 29.9428 19.8718 30.4584 20.2156C30.9741 20.5593 31.3393 20.989 31.5541 21.5046L34.3256 28.0144C34.4975 28.4011 34.5834 28.7878 34.5834 29.1746C34.5834 30.1199 34.2182 30.8933 33.4877 31.4949L30.9096 33.5574C31.4252 34.5027 32.1342 35.5017 33.0366 36.5544C33.9389 37.6072 34.9164 38.5847 35.9692 39.4871C37.0219 40.3894 38.0209 41.0984 38.9662 41.614L41.0287 39.0359C41.6303 38.3054 42.4037 37.9402 43.3491 37.9402C43.7358 37.9402 44.1225 38.0046 44.5092 38.1335L51.019 40.9695ZM48.3764 49.6062L49.7299 43.741L43.3491 41.0339L39.8041 45.4167C36.6245 43.9558 34.0786 42.28 32.1664 40.3894C30.2543 38.4988 28.5678 35.9421 27.1069 32.7195L31.4897 29.1746L28.7827 22.7937L22.9174 24.1472C22.9174 27.6277 23.5942 30.9255 24.9477 34.0408C26.3012 37.156 28.1166 39.8523 30.394 42.1296C32.6713 44.407 35.3676 46.2224 38.4828 47.5759C41.5981 48.9294 44.8959 49.6062 48.3764 49.6062Z" fill="#123750"/>
</g>
<defs>
<clipPath id="clip0_2_168">
<rect width="33" height="33" fill="white" transform="matrix(1 0 0 -1 19.8237 52.7)"/>
</clipPath>
</defs>
</svg>
