<svg width="22" height="22" viewBox="0 0 22 22" fill="none" xmlns="http://www.w3.org/2000/svg">
<path fill-rule="evenodd" clip-rule="evenodd" d="M11 0C4.925 0 0 4.925 0 11C0 17.075 4.925 22 11 22C17.075 22 22 17.075 22 11C22 4.925 17.075 0 11 0ZM7.707 8.793C7.5184 8.61084 7.2658 8.51005 7.0036 8.51233C6.7414 8.5146 6.49059 8.61977 6.30518 8.80518C6.11977 8.99059 6.0146 9.2414 6.01233 9.5036C6.01005 9.7658 6.11084 10.0184 6.293 10.207L10.293 14.207C10.4805 14.3945 10.7348 14.4998 11 14.4998C11.2652 14.4998 11.5195 14.3945 11.707 14.207L15.707 10.207C15.8892 10.0184 15.99 9.7658 15.9877 9.5036C15.9854 9.2414 15.8802 8.99059 15.6948 8.80518C15.5094 8.61977 15.2586 8.5146 14.9964 8.51233C14.7342 8.51005 14.4816 8.61084 14.293 8.793L11 12.086L7.707 8.793Z" fill="black" fill-opacity="0.89"/>
</svg>
