<svg width="73" height="73" viewBox="0 0 73 73" fill="none" xmlns="http://www.w3.org/2000/svg">
<rect x="1.84373" y="1.69995" width="69" height="69" rx="34.5" stroke="#123750" stroke-width="3"/>
<g clip-path="url(#clip0_2_158)">
<path d="M54.4601 30.4636C54.7608 30.8074 54.9112 31.2048 54.9112 31.656C54.9112 32.1072 54.7608 32.4832 54.4601 32.7839L52.6554 34.5886L48.2726 30.2058L50.0773 28.4011C50.378 28.1003 50.754 27.95 51.2052 27.95C51.6564 27.95 52.0538 28.1003 52.3976 28.4011L54.4601 30.4636ZM38.9913 39.4226L46.8546 31.6238L51.2374 36.0066L42.5362 44.7722V49.6062C42.5362 50.4656 42.2355 51.196 41.6339 51.7976C41.0323 52.3992 40.3019 52.7 39.4425 52.7H20.88C20.0206 52.7 19.2901 52.3992 18.6886 51.7976C18.087 51.196 17.7862 50.4656 17.7862 49.6062V22.7937C17.7862 22.2351 17.9259 21.7195 18.2052 21.2468C18.4845 20.7742 18.8605 20.3982 19.3331 20.1189C19.8058 19.8396 20.3214 19.7 20.88 19.7H34.0284C34.8878 19.7 35.6183 20.0007 36.2198 20.6023L41.6339 26.0164C42.2355 26.6179 42.5362 27.3484 42.5362 28.2078V32.9773L39.4425 36.071V31.0437H32.7394C32.3097 31.0437 31.9444 30.8933 31.6437 30.5925C31.3429 30.2917 31.1925 29.9265 31.1925 29.4968V22.7937H20.88V49.6062H39.4425V46.5125H35.3819C34.2218 46.5125 33.3839 45.9968 32.8683 44.9656C32.7394 44.7078 32.5245 44.5789 32.2237 44.5789C31.923 44.5789 31.7081 44.7078 31.5792 44.9656L31.0636 45.9324C30.8917 46.3191 30.5909 46.5125 30.1612 46.5125C30.1183 46.5125 30.0968 46.5125 30.0968 46.5125C29.6241 46.4695 29.3233 46.2332 29.1944 45.8035L28.0987 42.5808L27.3898 44.5789C27.2179 45.1804 26.8849 45.6531 26.3907 45.9968C25.8966 46.3406 25.3487 46.5125 24.7472 46.5125H23.9737C23.673 46.5125 23.4259 46.4158 23.2325 46.2224C23.0392 46.0291 22.9425 45.782 22.9425 45.4812C22.9425 45.1804 23.0392 44.9333 23.2325 44.74C23.4259 44.5466 23.673 44.45 23.9737 44.45H24.7472C25.0909 44.45 25.3273 44.2781 25.4562 43.9343L26.6163 40.4539C26.8741 39.7234 27.3683 39.3582 28.0987 39.3582C28.8292 39.3582 29.3233 39.7234 29.5812 40.4539L30.4835 43.0964C31.0851 42.5808 31.8478 42.4197 32.7716 42.613C33.6954 42.8064 34.3507 43.2898 34.7374 44.0632C34.8663 44.321 35.0812 44.45 35.3819 44.45H36.9933L37.9601 41.1628C38.1319 40.4753 38.4757 39.8953 38.9913 39.4226ZM34.2862 23.0515V27.95H39.1847L34.2862 23.0515Z" fill="#123750"/>
</g>
<defs>
<clipPath id="clip0_2_158">
<rect width="37.13" height="33" fill="white" transform="matrix(1 0 0 -1 17.7837 52.7)"/>
</clipPath>
</defs>
</svg>
