<svg width="17" height="18" viewBox="0 0 17 18" fill="none" xmlns="http://www.w3.org/2000/svg">
<g clip-path="url(#clip0_110_396)">
<path d="M1.72161 16.3757H4.45375V13.6435H1.72161V16.3757ZM5.0609 16.3757H8.09661V13.6435H5.0609V16.3757ZM1.72161 13.0364H4.45375V10.0007H1.72161V13.0364ZM5.0609 13.0364H8.09661V10.0007H5.0609V13.0364ZM1.72161 9.39354H4.45375V6.66139H1.72161V9.39354ZM8.70375 16.3757H11.7395V13.6435H8.70375V16.3757ZM5.0609 9.39354H8.09661V6.66139H5.0609V9.39354ZM12.3466 16.3757H15.0788V13.6435H12.3466V16.3757ZM8.70375 13.0364H11.7395V10.0007H8.70375V13.0364ZM5.36447 4.83997V2.10782C5.36447 2.02561 5.33443 1.95446 5.27434 1.89437C5.21426 1.83429 5.14311 1.80425 5.0609 1.80425H4.45375C4.37154 1.80425 4.30039 1.83429 4.2403 1.89437C4.18022 1.95446 4.15018 2.02561 4.15018 2.10782V4.83997C4.15018 4.92218 4.18022 4.99333 4.2403 5.05341C4.30039 5.1135 4.37154 5.14354 4.45375 5.14354H5.0609C5.14311 5.14354 5.21426 5.1135 5.27434 5.05341C5.33443 4.99333 5.36447 4.92218 5.36447 4.83997ZM12.3466 13.0364H15.0788V10.0007H12.3466V13.0364ZM8.70375 9.39354H11.7395V6.66139H8.70375V9.39354ZM12.3466 9.39354H15.0788V6.66139H12.3466V9.39354ZM12.6502 4.83997V2.10782C12.6502 2.02561 12.6201 1.95446 12.5601 1.89437C12.5 1.83429 12.4288 1.80425 12.3466 1.80425H11.7395C11.6573 1.80425 11.5861 1.83429 11.526 1.89437C11.4659 1.95446 11.4359 2.02561 11.4359 2.10782V4.83997C11.4359 4.92218 11.4659 4.99333 11.526 5.05341C11.5861 5.1135 11.6573 5.14354 11.7395 5.14354H12.3466C12.4288 5.14354 12.5 5.1135 12.5601 5.05341C12.6201 4.99333 12.6502 4.92218 12.6502 4.83997ZM16.293 4.23282V16.3757C16.293 16.7045 16.1729 16.9891 15.9325 17.2295C15.6922 17.4698 15.4076 17.59 15.0788 17.59H1.72161C1.39274 17.59 1.10814 17.4698 0.867815 17.2295C0.627488 16.9891 0.507324 16.7045 0.507324 16.3757V4.23282C0.507324 3.90395 0.627488 3.61936 0.867815 3.37903C1.10814 3.1387 1.39274 3.01854 1.72161 3.01854H2.9359V2.10782C2.9359 1.69041 3.08452 1.33308 3.38177 1.03584C3.67901 0.738588 4.03634 0.589966 4.45375 0.589966H5.0609C5.47831 0.589966 5.83564 0.738588 6.13288 1.03584C6.43013 1.33308 6.57875 1.69041 6.57875 2.10782V3.01854H10.2216V2.10782C10.2216 1.69041 10.3702 1.33308 10.6675 1.03584C10.9647 0.738588 11.3221 0.589966 11.7395 0.589966H12.3466C12.764 0.589966 13.1213 0.738588 13.4186 1.03584C13.7158 1.33308 13.8645 1.69041 13.8645 2.10782V3.01854H15.0788C15.4076 3.01854 15.6922 3.1387 15.9325 3.37903C16.1729 3.61936 16.293 3.90395 16.293 4.23282Z" fill="#123750"/>
</g>
<defs>
<clipPath id="clip0_110_396">
<rect width="15.8" height="17" fill="white" transform="matrix(1 0 0 -1 0.5 17.59)"/>
</clipPath>
</defs>
</svg>
