<svg width="16" height="18" viewBox="0 0 16 18" fill="none" xmlns="http://www.w3.org/2000/svg">
<g clip-path="url(#clip0_110_408)">
<path d="M13.7629 8.68989L15.0721 9.97058C15.2618 10.1477 15.325 10.369 15.2618 10.6346C15.1859 10.8939 15.0215 11.0552 14.7685 11.1185L12.985 11.5738L13.4878 13.3383C13.5637 13.5976 13.5036 13.819 13.3075 14.0024C13.1241 14.1984 12.9028 14.2585 12.6435 14.1826L10.879 13.6798L10.4236 15.4633C10.3604 15.7163 10.1991 15.8807 9.9398 15.9566C9.86391 15.9693 9.80383 15.9756 9.75956 15.9756C9.5635 15.9756 9.40223 15.906 9.27574 15.7669L7.99505 14.4577L6.71436 15.7669C6.53727 15.9566 6.31592 16.0199 6.05029 15.9566C5.79099 15.8871 5.62972 15.7226 5.56648 15.4633L5.11112 13.6798L3.34661 14.1826C3.08731 14.2585 2.86596 14.1984 2.68255 14.0024C2.48649 13.819 2.42641 13.5976 2.5023 13.3383L3.00509 11.5738L1.22161 11.1185C0.968634 11.0552 0.804199 10.8939 0.728306 10.6346C0.665062 10.369 0.728306 10.1477 0.918039 9.97058L2.22719 8.68989L0.918039 7.4092C0.728306 7.23211 0.665062 7.01076 0.728306 6.74513C0.804199 6.48583 0.968634 6.32456 1.22161 6.26132L3.00509 5.80596L2.5023 4.04145C2.42641 3.78215 2.48649 3.5608 2.68255 3.37739C2.86596 3.18133 3.08731 3.12125 3.34661 3.19714L5.11112 3.69993L5.56648 1.91645C5.62972 1.65715 5.79099 1.49588 6.05029 1.43263C6.30959 1.35674 6.53095 1.41682 6.71436 1.61288L7.99505 2.93152L9.27574 1.61288C9.45915 1.42315 9.6805 1.36307 9.9398 1.43263C10.1991 1.49588 10.3604 1.65715 10.4236 1.91645L10.879 3.69993L12.6435 3.19714C12.9028 3.12125 13.1241 3.18133 13.3075 3.37739C13.5036 3.5608 13.5637 3.78215 13.4878 4.04145L12.985 5.80596L14.7685 6.26132C15.0215 6.32456 15.1859 6.48583 15.2618 6.74513C15.325 7.01076 15.2618 7.23211 15.0721 7.4092L13.7629 8.68989Z" fill="#123750"/>
</g>
<defs>
<clipPath id="clip0_110_408">
<rect width="14.58" height="17" fill="white" transform="matrix(1 0 0 -1 0.700195 17.1899)"/>
</clipPath>
</defs>
</svg>
