<svg width="13" height="18" viewBox="0 0 13 18" fill="none" xmlns="http://www.w3.org/2000/svg">
<g clip-path="url(#clip0_110_393)">
<path d="M12.2015 13.8618C12.2015 14.5511 12.0038 15.1425 11.6085 15.6358C11.2133 16.1291 10.7374 16.3757 10.1808 16.3757H2.07924C1.52269 16.3757 1.04678 16.1291 0.651507 15.6358C0.256231 15.1425 0.0585938 14.5511 0.0585938 13.8618C0.0585938 13.3242 0.0854725 12.8167 0.13923 12.3392C0.192987 11.8617 0.292597 11.381 0.438058 10.8972C0.583519 10.4134 0.768508 9.99915 0.993025 9.65447C1.21754 9.30979 1.51479 9.02835 1.88477 8.81016C2.25474 8.59197 2.68006 8.48288 3.16071 8.48288C3.98921 9.2924 4.97898 9.69716 6.13002 9.69716C7.28106 9.69716 8.27083 9.2924 9.09933 8.48288C9.57999 8.48288 10.0053 8.59197 10.3753 8.81016C10.7453 9.02835 11.0425 9.30979 11.267 9.65447C11.4915 9.99915 11.6765 10.4134 11.822 10.8972C11.9674 11.381 12.0671 11.8617 12.1208 12.3392C12.1746 12.8167 12.2015 13.3242 12.2015 13.8618ZM8.70564 2.87155C8.70564 2.87155 8.88351 3.04942 9.23926 3.40517C9.59501 3.76092 9.77288 4.44158 9.77288 5.44716C9.77288 6.45274 9.41713 7.31128 8.70564 8.02277C7.99414 8.73427 7.1356 9.09002 6.13002 9.09002C5.12444 9.09002 4.2659 8.73427 3.55441 8.02277C2.84291 7.31128 2.48717 6.45274 2.48717 5.44716C2.48717 4.44158 2.84291 3.58304 3.55441 2.87155C4.2659 2.16005 5.12444 1.8043 6.13002 1.8043C7.1356 1.8043 7.99414 2.16005 8.70564 2.87155Z" fill="#123750"/>
</g>
<defs>
<clipPath id="clip0_110_393">
<rect width="12.16" height="17" fill="white" transform="matrix(1 0 0 -1 0.0498047 17.59)"/>
</clipPath>
</defs>
</svg>
