<svg width="18" height="18" viewBox="0 0 18 18" fill="none" xmlns="http://www.w3.org/2000/svg">
<g clip-path="url(#clip0_110_414)">
<path d="M11.0494 14.1189L10.613 14.5553C10.5561 14.6122 10.4865 14.6407 10.4043 14.6407C10.3221 14.6407 10.2493 14.6122 10.1861 14.5553L8.40262 12.7623L6.61914 14.5553C6.5559 14.6122 6.48317 14.6407 6.40095 14.6407C6.31873 14.6407 6.24916 14.6122 6.19224 14.5553L5.75586 14.1189C5.69894 14.062 5.67048 13.9924 5.67048 13.9102C5.67048 13.828 5.69894 13.7553 5.75586 13.692L7.54883 11.9086L5.75586 10.1251C5.69894 10.0618 5.67048 9.98909 5.67048 9.90688C5.67048 9.82466 5.69894 9.75509 5.75586 9.69817L6.19224 9.26179C6.24916 9.20487 6.31873 9.17641 6.40095 9.17641C6.48317 9.17641 6.5559 9.20487 6.61914 9.26179L8.40262 11.0453L10.1861 9.26179C10.2493 9.20487 10.3221 9.17641 10.4043 9.17641C10.4865 9.17641 10.5561 9.20487 10.613 9.26179L11.0494 9.69817C11.1063 9.75509 11.1348 9.82466 11.1348 9.90688C11.1348 9.98909 11.1063 10.0618 11.0494 10.1251L9.2659 11.9086L11.0494 13.692C11.1063 13.7553 11.1348 13.828 11.1348 13.9102C11.1348 13.9924 11.1063 14.062 11.0494 14.1189ZM1.72405 16.7657H15.0812V7.05141H1.72405V16.7657ZM5.36691 5.22998V2.49784C5.36691 2.4093 5.33845 2.33657 5.28153 2.27964C5.22461 2.22273 5.15188 2.19427 5.06334 2.19427H4.45619C4.36765 2.19427 4.29492 2.22273 4.238 2.27964C4.18108 2.33657 4.15262 2.4093 4.15262 2.49784V5.22998C4.15262 5.31852 4.18108 5.39125 4.238 5.44817C4.29492 5.50509 4.36765 5.53355 4.45619 5.53355H5.06334C5.15188 5.53355 5.22461 5.50509 5.28153 5.44817C5.33845 5.39125 5.36691 5.31852 5.36691 5.22998ZM12.6526 5.22998V2.49784C12.6526 2.4093 12.6242 2.33657 12.5672 2.27964C12.5103 2.22273 12.4376 2.19427 12.3491 2.19427H11.7419C11.6534 2.19427 11.5806 2.22273 11.5237 2.27964C11.4668 2.33657 11.4383 2.4093 11.4383 2.49784V5.22998C11.4383 5.31852 11.4668 5.39125 11.5237 5.44817C11.5806 5.50509 11.6534 5.53355 11.7419 5.53355H12.3491C12.4376 5.53355 12.5103 5.50509 12.5672 5.44817C12.6242 5.39125 12.6526 5.31852 12.6526 5.22998ZM16.2955 4.62284V16.7657C16.2955 17.0946 16.1753 17.3792 15.935 17.6195C15.6947 17.8598 15.4101 17.98 15.0812 17.98H1.72405C1.39518 17.98 1.11058 17.8598 0.870257 17.6195C0.629929 17.3792 0.509766 17.0946 0.509766 16.7657V4.62284C0.509766 4.29397 0.629929 4.00937 0.870257 3.76904C1.11058 3.52872 1.39518 3.40855 1.72405 3.40855H2.93834V2.49784C2.93834 2.08043 3.08696 1.7231 3.38421 1.42585C3.68145 1.1286 4.03878 0.97998 4.45619 0.97998H5.06334C5.48075 0.97998 5.83808 1.1286 6.13532 1.42585C6.43257 1.7231 6.58119 2.08043 6.58119 2.49784V3.40855H10.2241V2.49784C10.2241 2.08043 10.3727 1.7231 10.6699 1.42585C10.9672 1.1286 11.3245 0.97998 11.7419 0.97998H12.3491C12.7665 0.97998 13.1238 1.1286 13.421 1.42585C13.7183 1.7231 13.8669 2.08043 13.8669 2.49784V3.40855H15.0812C15.4101 3.40855 15.6947 3.52872 15.935 3.76904C16.1753 4.00937 16.2955 4.29397 16.2955 4.62284Z" fill="#123750"/>
</g>
<defs>
<clipPath id="clip0_110_414">
<rect width="17.02" height="17" fill="white" transform="matrix(1 0 0 -1 0.5 17.98)"/>
</clipPath>
</defs>
</svg>
