<svg width="10" height="18" viewBox="0 0 10 18" fill="none" xmlns="http://www.w3.org/2000/svg">
<g clip-path="url(#clip0_110_399)">
<path d="M6.84717 8.17857C6.84717 8.17857 6.96575 8.05999 7.20292 7.82282C7.44008 7.58566 7.55866 7.13188 7.55866 6.4615C7.55866 5.79111 7.3215 5.21875 6.84717 4.74442C6.37284 4.27009 5.80048 4.03292 5.13009 4.03292C4.45971 4.03292 3.88735 4.27009 3.41302 4.74442C2.93869 5.21875 2.70152 5.79111 2.70152 6.4615C2.70152 7.13188 2.93869 7.70424 3.41302 8.17857C3.88735 8.6529 4.45971 8.89007 5.13009 8.89007C5.80048 8.89007 6.37284 8.6529 6.84717 8.17857ZM9.98724 6.4615C9.98724 7.15086 9.88288 7.71689 9.67418 8.1596L6.22105 15.5022C6.11986 15.7109 5.96966 15.8754 5.77044 15.9955C5.57122 16.1157 5.35777 16.1758 5.13009 16.1758C4.90241 16.1758 4.68896 16.1157 4.48975 15.9955C4.29053 15.8754 4.14349 15.7109 4.04862 15.5022L0.586007 8.1596C0.377302 7.71689 0.272949 7.15086 0.272949 6.4615C0.272949 5.12072 0.74728 3.976 1.69594 3.02734C2.6446 2.07868 3.78932 1.60435 5.13009 1.60435C6.47087 1.60435 7.61558 2.07868 8.56424 3.02734C9.51291 3.976 9.98724 5.12072 9.98724 6.4615Z" fill="#123750"/>
</g>
<defs>
<clipPath id="clip0_110_399">
<rect width="9.72" height="17" fill="white" transform="matrix(1 0 0 -1 0.27002 17.39)"/>
</clipPath>
</defs>
</svg>
