<svg width="21" height="18" viewBox="0 0 21 18" fill="none" xmlns="http://www.w3.org/2000/svg">
<g clip-path="url(#clip0_110_411)">
<path d="M3.06431 10.6942H19.4572C19.6216 10.6942 19.7639 10.7543 19.8841 10.8745C20.0042 10.9947 20.0643 11.137 20.0643 11.3014V15.5514H17.6357V13.1228H3.06431V15.5514H0.635742V4.01568C0.635742 3.85124 0.695824 3.70894 0.815988 3.58878C0.936151 3.46862 1.07845 3.40853 1.24289 3.40853H2.45717C2.62161 3.40853 2.7639 3.46862 2.88407 3.58878C3.00423 3.70894 3.06431 3.85124 3.06431 4.01568V10.6942ZM7.8171 9.37561C7.8171 9.37561 7.93569 9.25703 8.17285 9.01986C8.41002 8.7827 8.5286 8.32892 8.5286 7.65853C8.5286 6.98815 8.29143 6.41579 7.8171 5.94146C7.34277 5.46713 6.77041 5.22996 6.10003 5.22996C5.42964 5.22996 4.85728 5.46713 4.38295 5.94146C3.90862 6.41579 3.67146 6.98815 3.67146 7.65853C3.67146 8.32892 3.90862 8.90128 4.38295 9.37561C4.85728 9.84994 5.42964 10.0871 6.10003 10.0871C6.77041 10.0871 7.34277 9.84994 7.8171 9.37561ZM20.0643 10.0871V9.47996C20.0643 8.47438 19.7086 7.61584 18.9971 6.90435C18.2856 6.19285 17.427 5.83711 16.4215 5.83711H9.74289C9.57845 5.83711 9.43615 5.89719 9.31599 6.01735C9.19582 6.13752 9.13574 6.27981 9.13574 6.44425V10.0871H20.0643Z" fill="#123750"/>
</g>
<defs>
<clipPath id="clip0_110_411">
<rect width="19.44" height="17" fill="white" transform="matrix(1 0 0 -1 0.629883 17.98)"/>
</clipPath>
</defs>
</svg>
