<svg width="16" height="18" viewBox="0 0 16 18" fill="none" xmlns="http://www.w3.org/2000/svg">
<g clip-path="url(#clip0_110_402)">
<path d="M10.4189 5.24716V0.769478C10.558 0.858021 10.6719 0.946562 10.7604 1.0351L14.6309 4.90564C14.7195 4.99418 14.808 5.10802 14.8966 5.24716H10.4189ZM9.20459 5.55073C9.20459 5.80371 9.29313 6.01873 9.47021 6.19582C9.6473 6.3729 9.86233 6.46144 10.1153 6.46144H15.276V16.4793C15.276 16.7323 15.1875 16.9473 15.0104 17.1244C14.8333 17.3015 14.6183 17.39 14.3653 17.39H1.6153C1.36233 17.39 1.1473 17.3015 0.970215 17.1244C0.793132 16.9473 0.70459 16.7323 0.70459 16.4793V1.30073C0.70459 1.04775 0.793132 0.832724 0.970215 0.65564C1.1473 0.478556 1.36233 0.390015 1.6153 0.390015H9.20459V5.55073Z" fill="#123750"/>
</g>
<defs>
<clipPath id="clip0_110_402">
<rect width="14.58" height="17" fill="white" transform="matrix(1 0 0 -1 0.700195 17.39)"/>
</clipPath>
</defs>
</svg>
