<svg fill="#14415a" height="64px" width="64px" version="1.1" id="Capa_1" xmlns="http://www.w3.org/2000/svg" xmlns:xlink="http://www.w3.org/1999/xlink" viewBox="0 0 298.697 298.697" xml:space="preserve" stroke="#14415a"><g id="SVGRepo_bgCarrier" stroke-width="0"></g><g id="SVGRepo_tracerCarrier" stroke-linecap="round" stroke-linejoin="round"></g><g id="SVGRepo_iconCarrier"> <g> <path d="M186.956,116.825l3.841-2.614c1.492-0.737,3.007-0.637,3.807-0.501c0.063,0.012,2.309,0.478,3.551-0.367 c1.529-1.039,1.93-3.129,0.885-4.655c-0.595-0.876-1.526-1.366-2.503-1.446c0.285-0.934,0.171-1.984-0.421-2.853 c-1.039-1.535-3.129-1.93-4.658-0.888c-0.854,0.581-1.364,2.107-1.523,3.542c-0.071,0.546-0.433,2.42-1.939,3.778l-3.684,2.511 c-2.875-0.783-7.892,0.043-12.528,1.668c5.01,0.725,10.005,2.199,14.883,4.392C186.878,118.471,186.997,117.601,186.956,116.825z"></path> <path d="M153.953,159.35h5.988c-3.382-5.437-3.934-12.074-1.479-18.35c2.074-5.303,6.098-10.097,11.634-13.862 c0.903-0.615,1.876-1.206,2.898-1.773c-1.346-0.282-2.714-0.509-4.107-0.66c-2.787-0.303-5.522-0.462-8.167-0.462 c-16.266,0-29.143,5.883-30.199,21.414l8.351,1.903C145.666,149.109,151.034,153.583,153.953,159.35z"></path> <path d="M211.543,159.49c2.787,0,5.046-2.259,5.046-5.046c0-4.407-2.546-8.31-6.364-10.164c-1.674,4.018-4.107,7.975-6.874,11.406 c-1.054,1.307-2.152,2.537-3.277,3.664h3.277v0.14H211.543z"></path> <path d="M196.131,128.949c-6.031,0-15.098,2.841-20.41,6.456c-7.707,5.242-11.129,13.051-7.069,19.018 c2.102,3.09,5.574,4.59,9.503,4.59c3.658,0,7.713-1.3,11.429-3.827c6.605-4.498,13.302-15.388,12.991-21.649l4.641-3.154 c1.141-0.565,2.292-0.727,3.227-0.727c0.545,0,1.016,0.055,1.371,0.118c0.042,0.008,0.817,0.169,1.762,0.169 c0.844,0,1.824-0.129,2.535-0.613c1.845-1.258,2.326-3.778,1.073-5.631c-0.723-1.054-1.851-1.646-3.029-1.74 c0.342-1.13,0.211-2.397-0.51-3.453c-0.785-1.154-2.059-1.774-3.355-1.774c-0.786,0-1.579,0.228-2.277,0.703 c-1.031,0.7-1.646,2.551-1.842,4.282c-0.083,0.655-0.521,2.921-2.341,4.57l-4.455,3.032 C198.457,129.066,197.357,128.949,196.131,128.949z"></path> <circle cx="91.039" cy="52.321" r="27.59"></circle> <path d="M215.197,179.35c2.762,0,5-2.238,5-5s-2.238-5-5-5c-28.955,0-39.387,0-68.837,0c-0.063-5.648-3.961-10.73-9.711-12.04 l-42.158-9.607l-12.512-32.992l12.406,18.279l5.08-13.305c3.672-9.616-1.147-20.388-10.764-24.06l-31.05-11.856 c-9.616-3.672-20.388,1.147-24.06,10.763L1.569,178.402c-0.441,0.886-1.536,5.674-1.536,5.674 c-0.359,5.475,2.294,10.947,7.345,13.921l33.527,19.736l-25.954,31.741c-5.244,6.413-4.296,15.863,2.117,21.107 c6.415,5.244,15.865,4.295,21.107-2.117l16.088-19.675l8.6-36.321l-22.42-9.67l30.592,7.705l-10.656,45.01 c-1.908,8.062,3.079,16.144,11.141,18.053c8.045,1.907,16.141-3.067,18.053-11.141l14.063-59.399 c1.89-7.98-0.938-16.842-10.272-19.342c-18.586-4.613-16.41-4.08-17.411-4.308c-6.437-1.467-10.999-6.813-11.812-12.996 l-5.537-42.803l14.888,39.257c1.484,3.914,4.829,6.825,8.91,7.755l48.692,11.097c3.723,0.848,7.531-0.047,10.466-2.335 C156.858,179.35,199.911,179.35,215.197,179.35z"></path> <path d="M291.334,124.243H247.06c-4.067,0-7.363,3.297-7.363,7.363v4.853c-0.927-0.376-1.938-0.587-3-0.587c-4.418,0-8,3.582-8,8 v7.554c0,4.418,3.582,8,8,8c1.062,0,2.073-0.211,3-0.587v63.768l-87.885-22.769c-5.348-1.384-10.804,1.827-12.188,7.173 c-1.385,5.346,1.826,10.803,7.173,12.188l8.146,2.11l-1.477,6.236c-1.271,5.374,2.054,10.763,7.428,12.035 c5.396,1.273,10.766-2.07,12.035-7.428l1.379-5.826l65.389,16.941v21.218c0,4.067,3.297,7.363,7.363,7.363h44.273 c4.067,0,7.363-3.297,7.363-7.363v-132.88C298.697,127.54,295.4,124.243,291.334,124.243z"></path> </g> </g></svg>