<svg fill="#14415a" version="1.1" id="Layer_1" xmlns="http://www.w3.org/2000/svg" xmlns:xlink="http://www.w3.org/1999/xlink" width="64px" height="64px" viewBox="0 0 256 233" enable-background="new 0 0 256 233" xml:space="preserve" stroke="#14415a"><g id="SVGRepo_bgCarrier" stroke-width="0"></g><g id="SVGRepo_tracerCarrier" stroke-linecap="round" stroke-linejoin="round"></g><g id="SVGRepo_iconCarrier"> <path d="M68.4,202.3c-0.87,0-1.75,0.7-1.75,1.76v26.89h3.51v-26.89C70.16,203,69.45,202.3,68.4,202.3z M108.3,202.3 c-0.88,0-1.76,0.7-1.76,1.76v26.89h3.51v-26.89C110.05,203.18,109.35,202.3,108.3,202.3z M198.4,66.2V7.46h-32.38v28.97L128.4,2.05 L2,115.19l19.22,21.65l19.49-17.59v111.7h14.63v-29.88c0-10.43,6.31-18.76,16.39-18.76h33.15c10.25,0,16.65,8.33,16.48,18.85v29.79 h13.06v-29.88c0-10.43,6.32-18.76,16.4-18.76v-0.09h33.23c10.17,0,16.57,8.33,16.39,18.94v29.79h14.67V120.33l19.17,17.59 L254,116.81L198.4,66.2z M88.3,179.59c-8.15,0-14.72-6.57-14.72-14.73c0-8.15,6.57-14.73,14.72-14.73c8.16,0,14.73,6.58,14.73,14.73 C103.03,173.02,96.46,179.59,88.3,179.59z M94.27,128.21c0-8.13,6.59-14.73,14.73-14.73c8.13,0,14.73,6.6,14.73,14.73 c0,8.14-6.6,14.73-14.73,14.73C100.86,142.94,94.27,136.35,94.27,128.21z M128.37,179.59c-8.13,0-14.73-6.59-14.73-14.73 c0-8.13,6.6-14.73,14.73-14.73c8.14,0,14.73,6.6,14.73,14.73C143.1,173,136.51,179.59,128.37,179.59z M146.52,142.94 c-8.13,0-14.73-6.59-14.73-14.73c0-8.13,6.6-14.73,14.73-14.73c8.14,0,14.73,6.6,14.73,14.73 C161.25,136.35,154.66,142.94,146.52,142.94z M167.04,179.59c-8.15,0-14.73-6.57-14.73-14.73c0-8.15,6.58-14.73,14.73-14.73 s14.73,6.58,14.73,14.73C181.77,173.02,175.19,179.59,167.04,179.59z M187.38,202.3c-0.88,0-1.75,0.7-1.75,1.76v26.89h3.5v-26.89 C189.13,203.18,188.43,202.3,187.38,202.3z M147.49,202.3c-0.88,0-1.76,0.7-1.76,1.76v26.89h3.51v-26.89 C149.24,203,148.54,202.3,147.49,202.3z"></path> </g></svg>