<svg fill="#14415a" width="64px" height="64px" viewBox="0 0 512 512" enable-background="new 0 0 512 512" id="Expertise" version="1.1" xml:space="preserve" xmlns="http://www.w3.org/2000/svg" xmlns:xlink="http://www.w3.org/1999/xlink" stroke="#14415a"><g id="SVGRepo_bgCarrier" stroke-width="0"></g><g id="SVGRepo_tracerCarrier" stroke-linecap="round" stroke-linejoin="round"></g><g id="SVGRepo_iconCarrier"> <g> <path d="M245.368,46.908c0.738,0.535,1.049,1.488,0.768,2.355l-5.426,16.697c-0.633,1.943,1.592,3.559,3.244,2.357L258.157,58 c0.738-0.537,1.738-0.537,2.477,0l14.203,10.318c1.652,1.201,3.877-0.414,3.246-2.357l-5.426-16.697 c-0.283-0.867,0.027-1.82,0.766-2.355l14.203-10.457c1.652-1.201,0.805-3.951-1.238-3.951h-17.557c-0.912,0-1.723-0.451-2.004-1.32 l-5.426-16.628c-0.631-1.941-3.379-1.908-4.01,0.033l-5.426,16.578c-0.283,0.867-1.092,1.337-2.006,1.337h-17.557 c-2.041,0-2.891,2.75-1.238,3.951L245.368,46.908z"></path> <path d="M419.888,105.883c-0.645-0.646-0.801-1.635-0.387-2.447l7.971-15.645c0.926-1.818-1.018-3.762-2.838-2.836l-15.643,7.971 c-0.813,0.416-1.801,0.258-2.447-0.387L394.13,80.125c-1.443-1.445-3.891-0.197-3.572,1.82l2.746,17.34 c0.143,0.902-0.313,1.795-1.125,2.209l-15.643,7.971c-1.82,0.926-1.391,3.641,0.627,3.959l17.34,2.748 c0.904,0.143,1.611,0.85,1.754,1.752l2.744,17.34c0.32,2.018,3.035,2.447,3.961,0.627l7.971-15.643 c0.414-0.814,1.307-1.268,2.209-1.125l17.34,2.746c2.018,0.32,3.266-2.129,1.82-3.572L419.888,105.883z"></path> <path d="M497.972,252.951l-16.354-5.426c-0.871-0.283-1.117-1.092-1.117-2.006v-17.557c0-2.041-2.957-2.891-4.156-1.238 l-10.486,14.203c-0.539,0.738-1.578,1.049-2.445,0.768l-16.739-5.428c-1.941-0.631-3.578,1.592-2.379,3.244l10.311,14.205 c0.535,0.738,0.532,1.738-0.005,2.477l-10.322,14.205c-1.199,1.652,0.412,3.875,2.355,3.244l16.696-5.426 c0.869-0.281,1.818,0.027,2.357,0.766l10.659,14.203c1.199,1.652,4.154,0.805,4.154-1.238v-17.557c0-0.914,0.246-1.723,1.117-2.004 l16.527-5.428C500.086,256.33,499.915,253.582,497.972,252.951z"></path> <path d="M139.704,108.779c2.018-0.32,2.447-3.033,0.629-3.961l-15.643-7.971c-0.816-0.414-1.271-1.307-1.125-2.209l2.744-17.34 c0.32-2.018-2.129-3.264-3.572-1.82l-12.412,12.414c-0.646,0.646-1.637,0.803-2.449,0.387l-15.645-7.971 c-1.818-0.926-3.762,1.018-2.834,2.836l7.969,15.645c0.416,0.813,0.26,1.801-0.387,2.447L84.565,113.65 c-1.443,1.443-0.197,3.893,1.82,3.572l17.34-2.746c0.904-0.143,1.793,0.311,2.209,1.125l7.971,15.643 c0.928,1.82,3.641,1.391,3.959-0.627l2.748-17.34c0.143-0.902,0.85-1.609,1.752-1.752L139.704,108.779z"></path> <path d="M67.948,232.941c1.199-1.65-0.416-3.875-2.357-3.242l-16.697,5.424c-0.869,0.283-1.82-0.027-2.355-0.766l-10.274-14.203 c-1.199-1.652-3.764-0.805-3.764,1.238v17.557c0,0.914-0.634,1.723-1.505,2.004l-16.721,5.428c-1.941,0.629-1.957,3.377-0.013,4.01 L31,255.814c0.869,0.283,1.5,1.092,1.5,2.006v17.557c0,2.041,2.565,2.891,3.764,1.238l10.298-14.203 c0.537-0.738,1.473-1.049,2.342-0.766l16.691,5.426c1.943,0.631,3.553-1.592,2.354-3.244l-10.32-14.203 c-0.537-0.74-0.536-1.74,0.001-2.479L67.948,232.941z"></path> <path d="M370.45,256.971c-1.906-41.326-25.762-76.92-60.197-95.363c-2.715-1.48-5.514-2.838-8.371-4.074 c-13.943-6.061-29.33-9.424-45.504-9.424c-60.75,0-110.352,47.451-113.909,107.326l0.031-0.006v0.203 c0,2.209-0.105,12.098-0.105,12.098l-1.701,3.77h11.371c4.273-14,17.393-23.568,32.871-23.568 c18.945,0,34.359,15.826,34.359,34.771c0,18.943-15.414,34.052-34.359,34.052c-18.135,0-33.029-14.255-34.266-32.255h-13.568 c-0.289,0-0.563,0.463-0.842,0.424l-14.273,39.865c-2.004,5.559,2.113,11.711,8.02,11.711h12.291l-0.092,63.488 c0,12.535,10.166,22.512,22.701,22.512H205.5v59.693c0,9.301,9.341,16.307,18.642,16.307h104.434 c9.301,0,16.925-7.006,16.925-16.307V362.277c0-16.357,4.316-32.328,11.959-46.795c7.984-15.111,12.658-32.227,13.094-50.404 c0.02-0.912,0.029-1.844,0.029-2.777C370.582,260.518,370.53,258.734,370.45,256.971z M258.216,248.5H248.5v9.793 c0,3.418-3.084,6.188-6.5,6.188s-6.5-2.77-6.5-6.188V248.5h-8.802c-3.416,0-6.188-3.084-6.188-6.5s2.771-6.5,6.188-6.5h8.802 v-8.725c0-3.416,3.084-6.188,6.5-6.188s6.5,2.771,6.5,6.188v8.725h9.716c3.416,0,6.188,3.084,6.188,6.5 S261.632,248.5,258.216,248.5z"></path> <path d="M200.507,298.637c3.938-3.982,6.414-9.449,6.414-15.523c0-12.129-9.855-21.982-21.984-21.982 c-6.008,0-11.475,2.408-15.457,6.346c-4.025,4.004-6.523,9.539-6.523,15.637c0,12.127,9.854,21.982,21.98,21.982 C191.013,305.096,196.524,302.621,200.507,298.637z"></path> </g> </g></svg>