<svg width="19" height="18" viewBox="0 0 19 18" fill="none" xmlns="http://www.w3.org/2000/svg">
<g clip-path="url(#clip0_110_405)">
<path d="M7.91853 11.1185H11.5614V10.2078H10.3471V5.95778H9.26562L7.86161 7.25745L8.59208 8.01637C8.8577 7.78237 9.03162 7.60213 9.11384 7.47564H9.13281V10.2078H7.91853V11.1185ZM12.5765 7.34283C12.5765 7.34283 12.6097 7.45667 12.6761 7.68434C12.7425 7.91202 12.7757 8.24722 12.7757 8.68992C12.7757 9.13263 12.7093 9.58167 12.5765 10.037C12.4436 10.4924 12.2555 10.9161 12.012 11.3082C11.7685 11.7003 11.4475 12.0197 11.0491 12.2664C10.6507 12.513 10.2143 12.6364 9.73996 12.6364C9.26562 12.6364 8.82924 12.513 8.4308 12.2664C8.03237 12.0197 7.7114 11.7003 7.46791 11.3082C7.22442 10.9161 7.03627 10.4924 6.90346 10.037C6.77065 9.58167 6.70424 9.13263 6.70424 8.68992C6.70424 8.24722 6.77065 7.79818 6.90346 7.34283C7.03627 6.88747 7.22442 6.46373 7.46791 6.07162C7.7114 5.67951 8.03237 5.36012 8.4308 5.11347C8.82924 4.86682 9.26562 4.74349 9.73996 4.74349C10.2143 4.74349 10.6507 4.86682 11.0491 5.11347C11.4475 5.36012 11.7685 5.67951 12.012 6.07162C12.2555 6.46373 12.4436 6.88747 12.5765 7.34283ZM17.6328 11.1185V6.26135C16.9624 6.26135 16.3901 6.02419 15.9157 5.54986C15.4414 5.07553 15.2042 4.50317 15.2042 3.83278H4.27567C4.27567 4.50317 4.0385 5.07553 3.56417 5.54986C3.08984 6.02419 2.51749 6.26135 1.8471 6.26135V11.1185C2.51749 11.1185 3.08984 11.3557 3.56417 11.83C4.0385 12.3043 4.27567 12.8767 4.27567 13.5471H15.2042C15.2042 12.8767 15.4414 12.3043 15.9157 11.83C16.3901 11.3557 16.9624 11.1185 17.6328 11.1185ZM18.8471 3.22564V14.1542C18.8471 14.3186 18.787 14.4609 18.6669 14.5811C18.5467 14.7013 18.4044 14.7614 18.24 14.7614H1.23996C1.07552 14.7614 0.933222 14.7013 0.813058 14.5811C0.692894 14.4609 0.632812 14.3186 0.632812 14.1542V3.22564C0.632812 3.0612 0.692894 2.9189 0.813058 2.79874C0.933222 2.67858 1.07552 2.61849 1.23996 2.61849H18.24C18.4044 2.61849 18.5467 2.67858 18.6669 2.79874C18.787 2.9189 18.8471 3.0612 18.8471 3.22564Z" fill="#123750"/>
</g>
<defs>
<clipPath id="clip0_110_405">
<rect width="18.22" height="17" fill="white" transform="matrix(1 0 0 -1 0.629883 17.1899)"/>
</clipPath>
</defs>
</svg>
