<svg width="16" height="17" viewBox="0 0 16 17" fill="none" xmlns="http://www.w3.org/2000/svg">
<g clip-path="url(#clip0_86_305)">
<path d="M1.67923 15.6672H4.25066V13.0958H1.67923V15.6672ZM4.82209 15.6672H7.67923V13.0958H4.82209V15.6672ZM1.67923 12.5243H4.25066V9.6672H1.67923V12.5243ZM4.82209 12.5243H7.67923V9.6672H4.82209V12.5243ZM1.67923 9.09577H4.25066V6.52434H1.67923V9.09577ZM8.25066 15.6672H11.1078V13.0958H8.25066V15.6672ZM4.82209 9.09577H7.67923V6.52434H4.82209V9.09577ZM11.6792 15.6672H14.2507V13.0958H11.6792V15.6672ZM8.25066 12.5243H11.1078V9.6672H8.25066V12.5243ZM5.10781 4.81006V2.23863C5.10781 2.16125 5.07953 2.09428 5.02298 2.03774C4.96644 1.98119 4.89947 1.95292 4.82209 1.95292H4.25066C4.17328 1.95292 4.10632 1.98119 4.04977 2.03774C3.99322 2.09428 3.96495 2.16125 3.96495 2.23863V4.81006C3.96495 4.88744 3.99322 4.9544 4.04977 5.01095C4.10632 5.0675 4.17328 5.09577 4.25066 5.09577H4.82209C4.89947 5.09577 4.96644 5.0675 5.02298 5.01095C5.07953 4.9544 5.10781 4.88744 5.10781 4.81006ZM11.6792 12.5243H14.2507V9.6672H11.6792V12.5243ZM8.25066 9.09577H11.1078V6.52434H8.25066V9.09577ZM11.6792 9.09577H14.2507V6.52434H11.6792V9.09577ZM11.9649 4.81006V2.23863C11.9649 2.16125 11.9367 2.09428 11.8801 2.03774C11.8236 1.98119 11.7566 1.95292 11.6792 1.95292H11.1078C11.0304 1.95292 10.9635 1.98119 10.9069 2.03774C10.8504 2.09428 10.8221 2.16125 10.8221 2.23863V4.81006C10.8221 4.88744 10.8504 4.9544 10.9069 5.01095C10.9635 5.0675 11.0304 5.09577 11.1078 5.09577H11.6792C11.7566 5.09577 11.8236 5.0675 11.8801 5.01095C11.9367 4.9544 11.9649 4.88744 11.9649 4.81006ZM15.3935 4.23863V15.6672C15.3935 15.9767 15.2804 16.2446 15.0542 16.4708C14.828 16.697 14.5602 16.8101 14.2507 16.8101H1.67923C1.36971 16.8101 1.10185 16.697 0.875663 16.4708C0.649472 16.2446 0.536377 15.9767 0.536377 15.6672V4.23863C0.536377 3.92911 0.649472 3.66125 0.875663 3.43506C1.10185 3.20887 1.36971 3.09577 1.67923 3.09577H2.82209V2.23863C2.82209 1.84577 2.96197 1.50946 3.24173 1.2297C3.5215 0.949939 3.85781 0.810059 4.25066 0.810059H4.82209C5.21495 0.810059 5.55126 0.949939 5.83102 1.2297C6.11078 1.50946 6.25066 1.84577 6.25066 2.23863V3.09577H9.67923V2.23863C9.67923 1.84577 9.81912 1.50946 10.0989 1.2297C10.3786 0.949939 10.7149 0.810059 11.1078 0.810059H11.6792C12.0721 0.810059 12.4084 0.949939 12.6882 1.2297C12.9679 1.50946 13.1078 1.84577 13.1078 2.23863V3.09577H14.2507C14.5602 3.09577 14.828 3.20887 15.0542 3.43506C15.2804 3.66125 15.3935 3.92911 15.3935 4.23863Z" fill="#123750"/>
</g>
<defs>
<clipPath id="clip0_86_305">
<rect width="14.97" height="16" fill="white" transform="matrix(1 0 0 -1 0.47998 16.8101)"/>
</clipPath>
</defs>
</svg>
