<svg width="15" height="17" viewBox="0 0 15 17" fill="none" xmlns="http://www.w3.org/2000/svg">
<g clip-path="url(#clip0_86_302)">
<path d="M12.928 8.81002L14.1601 10.0154C14.3387 10.182 14.3982 10.3904 14.3387 10.6404C14.2673 10.8844 14.1125 11.0362 13.8744 11.0957L12.1959 11.5243L12.6691 13.185C12.7405 13.4291 12.6839 13.6374 12.4994 13.81C12.3268 13.9945 12.1185 14.0511 11.8744 13.9797L10.2137 13.5065L9.78514 15.185C9.72562 15.4231 9.57383 15.5779 9.32978 15.6493C9.25835 15.6612 9.20181 15.6672 9.16014 15.6672C8.97562 15.6672 8.82383 15.6017 8.70478 15.4707L7.49942 14.2386L6.29407 15.4707C6.1274 15.6493 5.91907 15.7088 5.66907 15.6493C5.42502 15.5838 5.27323 15.4291 5.21371 15.185L4.78514 13.5065L3.12442 13.9797C2.88038 14.0511 2.67204 13.9945 2.49942 13.81C2.3149 13.6374 2.25835 13.4291 2.32978 13.185L2.803 11.5243L1.12442 11.0957C0.886329 11.0362 0.731567 10.8844 0.660139 10.6404C0.600615 10.3904 0.660139 10.182 0.83871 10.0154L2.07085 8.81002L0.83871 7.60467C0.660139 7.438 0.600615 7.22967 0.660139 6.97967C0.731567 6.73562 0.886329 6.58383 1.12442 6.52431L2.803 6.09574L2.32978 4.43502C2.25835 4.19098 2.3149 3.98264 2.49942 3.81002C2.67204 3.6255 2.88038 3.56895 3.12442 3.64038L4.78514 4.1136L5.21371 2.43502C5.27323 2.19098 5.42502 2.03919 5.66907 1.97967C5.91312 1.90824 6.12145 1.96478 6.29407 2.14931L7.49942 3.39038L8.70478 2.14931C8.8774 1.97074 9.08573 1.91419 9.32978 1.97967C9.57383 2.03919 9.72562 2.19098 9.78514 2.43502L10.2137 4.1136L11.8744 3.64038C12.1185 3.56895 12.3268 3.6255 12.4994 3.81002C12.6839 3.98264 12.7405 4.19098 12.6691 4.43502L12.1959 6.09574L13.8744 6.52431C14.1125 6.58383 14.2673 6.73562 14.3387 6.97967C14.3982 7.22967 14.3387 7.438 14.1601 7.60467L12.928 8.81002Z" fill="#054A84"/>
</g>
<defs>
<clipPath id="clip0_86_302">
<rect width="13.81" height="16" fill="white" transform="matrix(1 0 0 -1 0.589966 16.8101)"/>
</clipPath>
</defs>
</svg>
