<?xml version="1.0" encoding="UTF-8"?>
<svg version="1.1" xmlns="http://www.w3.org/2000/svg" width="120" height="120">
<path d="M0 0 C9.2824548 6.54114505 13.9337827 14.15237901 16.25 25.1875 C16.87211207 29.1294283 17.11527911 33.03129599 17.28295898 37.0168457 C17.77936044 48.38667747 20.93479518 55.21199893 28 64 C36.19111943 74.26801464 36.6507486 81.88014097 35.21875 94.62890625 C35.01885752 96.79559799 34.96443857 98.88880751 35 101.0625 C35 102.031875 35 103.00125 35 104 C34 105 34 105 31.4375 105.0625 C30.633125 105.041875 29.82875 105.02125 29 105 C28.67 103.68 28.34 102.36 28 101 C27.46375 101.37511719 26.9275 101.75023438 26.375 102.13671875 C21.04987903 105.61381254 15.78521702 107.97994742 9.75 109.875 C8.74066406 110.19730591 8.74066406 110.19730591 7.7109375 110.52612305 C3.71390902 111.7213807 0.16745066 112.31571596 -4 112 C-5 111 -5 111 -5.25 108.6875 C-4.95285878 105.49323189 -3.93998224 104.48317727 -2 102 C-1.28566879 99.35065178 -1.28566879 99.35065178 -1 97 C-6.14814094 95.9520747 -11.08580424 95.85020935 -16.3125 95.875 C-17.5180957 95.86919922 -17.5180957 95.86919922 -18.74804688 95.86328125 C-22.68459345 95.86961519 -26.52175176 96.01492482 -30.4296875 96.5 C-35.56133843 97.1284572 -40.64804115 97.14699202 -45.8125 97.125 C-46.73998047 97.12886719 -47.66746094 97.13273437 -48.62304688 97.13671875 C-49.96399414 97.13478516 -49.96399414 97.13478516 -51.33203125 97.1328125 C-52.13358643 97.13168457 -52.9351416 97.13055664 -53.76098633 97.12939453 C-55.96275724 97.00215229 -57.88524323 96.60870661 -60 96 C-59.979375 97.11375 -59.95875 98.2275 -59.9375 99.375 C-60 103 -60 103 -61 105 C-62.66611905 105.042721 -64.33382885 105.04063832 -66 105 C-67 104 -67 104 -67.125 100.25 C-67.10706215 97.73870032 -66.93556284 95.7164765 -66.375 93.25 C-65.90420154 90.42520923 -66.71240841 89.49944251 -68 87 C-68.60244688 83.04106338 -68.21195628 81.36544186 -66.1875 77.875 C-61.32476191 72.58156225 -52.90500444 70.74648697 -46 70 C-46.19916016 69.12601563 -46.19916016 69.12601563 -46.40234375 68.234375 C-50.28425775 50.2132268 -52.21229118 27.7246953 -43 11 C-33.20011084 -3.20076531 -15.42616956 -8.97434393 0 0 Z M-33.375 13.5 C-35.29373961 15.85822746 -36.91404159 18.14798802 -38 21 C-37.70194993 23.19747131 -37.70194993 23.19747131 -37 25 C-36.59910156 24.43152344 -36.19820312 23.86304687 -35.78515625 23.27734375 C-31.48366817 17.43473296 -26.88636542 13.19988365 -21 9 C-19.66473865 8.00257586 -18.33080566 7.00336138 -17 6 C-23.66177977 5.16727753 -29.11561315 8.65742082 -33.375 13.5 Z M-11.625 10.875 C-12.60726562 11.22304688 -13.58953125 11.57109375 -14.6015625 11.9296875 C-17.14456686 12.76034971 -17.14456686 12.76034971 -18 15 C-16.99839844 15.12117188 -15.99679688 15.24234375 -14.96484375 15.3671875 C-13.6223597 15.53617151 -12.27991377 15.70545858 -10.9375 15.875 C-9.95233398 15.99294922 -9.95233398 15.99294922 -8.94726562 16.11328125 C-4.4664808 16.68717487 -0.31648825 17.66407776 4 19 C2.60865582 14.57299578 0.52115858 12.00586708 -3 9 C-6.3251266 9 -8.50736973 9.74804658 -11.625 10.875 Z M-39 25 C-38 27 -38 27 -38 27 Z M-42 48 C-41.7436673 50.87695765 -41.47047937 53.75064267 -41.1875 56.625 C-41.11724609 57.43324219 -41.04699219 58.24148437 -40.97460938 59.07421875 C-40.48338197 63.90789637 -39.86182018 67.92271013 -37 72 C-31.99659338 73.39027569 -26.90387255 73.22108627 -21.75 73.25 C-20.84636719 73.270625 -19.94273438 73.29125 -19.01171875 73.3125 C-9.91700524 73.36484367 -2.47064527 71.48659026 4.265625 65.16796875 C7.35831379 61.30210776 9.05876597 56.83957341 10 52 C9.67033822 49.74962005 9.67033822 49.74962005 9 48 C8.69707031 48.65226562 8.39414063 49.30453125 8.08203125 49.9765625 C4.02143144 58.4475984 -0.15759595 65.00100285 -9 69 C-15.46321688 70.87123331 -21.0042909 69.88977251 -27 67 C-33.18501959 63.04158746 -36.27455219 57.20267856 -40 51 C-40.66 50.01 -41.32 49.02 -42 48 Z M14 60 C13.484375 61.19625 12.96875 62.3925 12.4375 63.625 C8.66158294 71.07158207 3.07168732 74.34506407 -4.5703125 77.23828125 C-10.13562723 78.98303426 -15.33375285 79.1914779 -21.125 79.1875 C-21.97376709 79.18886963 -22.82253418 79.19023926 -23.69702148 79.19165039 C-29.17793508 79.14926005 -34.22261718 78.54855838 -39.5859375 77.39453125 C-46.40498124 76.28009206 -52.39513419 77.75816474 -58.50390625 80.76953125 C-60.41989896 82.34534771 -60.63176324 83.59385018 -61 86 C-54.58342364 91.23457545 -47.80375618 91.35573982 -39.73828125 90.66015625 C-37.92892301 90.46800471 -36.12032265 90.26859885 -34.3125 90.0625 C-20.93581629 88.71853354 -9.07387625 88.12625889 4 92 C4.99 97.445 4.99 97.445 6 103 C13.51396892 102.0690658 20.25423404 98.81273586 25.5625 93.375 C28.74170608 88.12239864 30.12442288 84.17935051 29 78 C27.39301636 74.67737547 25.27235044 71.89613291 23 69 C22.06607422 67.72962891 22.06607422 67.72962891 21.11328125 66.43359375 C18.66410426 63.12803787 18.66410426 63.12803787 16 60 C15.34 60 14.68 60 14 60 Z " fill="#292929" transform="translate(76,8)"/>
<path d="M0 0 C3 2.625 3 2.625 5 5 C5.495 5.495 5.495 5.495 6 6 C6.08998143 15.91595407 3.22438595 25.21951756 -3 33 C-7.49631896 37.39599541 -10.7832284 40.55848233 -17.1875 41.4375 C-23.65366743 40.69548079 -27.3762104 36.69759822 -31.75 32.125 C-35.77095175 26.54034479 -38.83520207 21.52214768 -38.52734375 14.44140625 C-37.28805221 8.70394541 -33.81280253 1.56753194 -29 -2 C-19.90356155 -4.21299493 -8.42475587 -4.56117356 0 0 Z " fill="#FDFDFD" transform="translate(77,32)"/>
</svg>
