<svg width="10" height="17" viewBox="0 0 10 17" fill="none" xmlns="http://www.w3.org/2000/svg">
<g clip-path="url(#clip0_86_263)">
<path d="M6.72607 8.14045C6.72607 8.14045 6.83768 8.02884 7.0609 7.80563C7.28411 7.58241 7.39572 7.15533 7.39572 6.52438C7.39572 5.89343 7.1725 5.35474 6.72607 4.90831C6.27965 4.46188 5.74096 4.23866 5.11 4.23866C4.47905 4.23866 3.94036 4.46188 3.49393 4.90831C3.0475 5.35474 2.82429 5.89343 2.82429 6.52438C2.82429 7.15533 3.0475 7.69402 3.49393 8.14045C3.94036 8.58688 4.47905 8.81009 5.11 8.81009C5.74096 8.81009 6.27965 8.58688 6.72607 8.14045ZM9.68143 6.52438C9.68143 7.17319 9.58322 7.70593 9.38679 8.12259L6.13679 15.0333C6.04155 15.2297 5.90018 15.3845 5.71268 15.4976C5.52518 15.6107 5.32429 15.6672 5.11 15.6672C4.89572 15.6672 4.69482 15.6107 4.50732 15.4976C4.31982 15.3845 4.18143 15.2297 4.09215 15.0333L0.833217 8.12259C0.636789 7.70593 0.538574 7.17319 0.538574 6.52438C0.538574 5.26247 0.985003 4.18509 1.87786 3.29224C2.77072 2.39938 3.8481 1.95295 5.11 1.95295C6.37191 1.95295 7.44929 2.39938 8.34215 3.29224C9.235 4.18509 9.68143 5.26247 9.68143 6.52438Z" fill="#054A84"/>
</g>
<defs>
<clipPath id="clip0_86_263">
<rect width="9.22" height="16" fill="white" transform="matrix(1 0 0 -1 0.5 16.8101)"/>
</clipPath>
</defs>
</svg>
