<svg width="73" height="73" viewBox="0 0 73 73" fill="none" xmlns="http://www.w3.org/2000/svg">
<rect x="1.8537" y="1.69995" width="69" height="69" rx="34.5" stroke="#123750" stroke-width="3"/>
<g clip-path="url(#clip0_2_148)">
<path d="M52.5959 49.9285C52.9826 50.2722 52.9826 50.6375 52.5959 51.0242L51.1779 52.4421C50.7912 52.8289 50.426 52.8289 50.0822 52.4421L42.2834 44.6433C42.1115 44.4714 42.0256 44.2996 42.0256 44.1277V43.2253C39.4904 45.4167 36.5685 46.5125 33.2599 46.5125C29.5646 46.5125 26.4064 45.2019 23.7853 42.5808C21.1642 39.9597 19.8537 36.8015 19.8537 33.1062C19.8537 29.4109 21.1642 26.2527 23.7853 23.6316C26.4064 21.0105 29.5646 19.7 33.2599 19.7C36.9553 19.7 40.1135 21.0105 42.7346 23.6316C45.3557 26.2527 46.6662 29.4109 46.6662 33.1062C46.6662 36.4148 45.5705 39.3367 43.3791 41.8718H44.2814C44.4963 41.8718 44.6682 41.9578 44.7971 42.1296L52.5959 49.9285ZM25.9767 40.3894C25.9767 40.3894 26.4816 40.8943 27.4914 41.9041C28.5012 42.9138 30.424 43.4187 33.2599 43.4187C36.0959 43.4187 38.5236 42.4089 40.5432 40.3894C42.5627 38.3699 43.5724 35.9421 43.5724 33.1062C43.5724 30.2703 42.5627 27.8425 40.5432 25.823C38.5236 23.8035 36.0959 22.7937 33.2599 22.7937C30.424 22.7937 27.9963 23.8035 25.9767 25.823C23.9572 27.8425 22.9474 30.2703 22.9474 33.1062C22.9474 35.9421 23.9572 38.3699 25.9767 40.3894Z" fill="#123750"/>
</g>
<defs>
<clipPath id="clip0_2_148">
<rect width="33" height="33" fill="white" transform="matrix(1 0 0 -1 19.8537 52.7)"/>
</clipPath>
</defs>
</svg>
